# File created by Blade
# Date/Time:  Thu Jan 22 19:18:16 2015
# Frame Rate: 120.000 fps
#------------------------------------------------------
:FULLY-SPECIFIED
:DEGREES
1041
root -0.712992 31.719864 -7.077334 85.664212 24.938824 -9.488405
RightUpLeg -83.220916 -3.272346 9.474564
RightLeg -5.964885 -0.000000 0.000000
RightFoot -4.791734 -10.580707 17.164973
RightToeBase 7.364711 -0.000000 -0.000000
LeftUpLeg -98.050029 29.602145 24.581377
LeftLeg 4.865614 -0.000000 -0.000000
LeftFoot 3.801302 2.684460 -27.512286
LeftToeBase 8.040274 -0.000000 -0.000000
Spine 40.714701 12.371954 -22.810713
RightShoulder -3.377909 26.629609 -50.669774
RightArm 88.005036 20.354144 43.749311
RightForeArm -25.189733 0.000000 30.852985
RightHand 12.540124 -0.000000 3.060670
RightHandThumb1 -24.326973 -0.000000 -32.862282
LeftShoulder 0.198230 -24.301560 27.691809
LeftArm 41.413665 -28.347567 -58.312579
LeftForeArm -28.336373 -0.000000 65.408756
LeftHand -9.082758 0.000000 -15.881103
LeftHandThumb1 -26.253704 0.000000 33.147579
Head -41.722888 0.583776 -28.047909
1042
root -0.710678 31.720534 -7.075860 85.695963 24.942585 -9.470282
RightUpLeg -83.232630 -3.285902 9.361199
RightLeg -5.963805 -0.000000 0.000000
RightFoot -4.836268 -10.655941 17.203043
RightToeBase 7.394771 -0.000000 -0.000000
LeftUpLeg -98.071599 29.590497 24.577119
LeftLeg 4.860589 -0.000000 -0.000000
LeftFoot 3.798238 2.694549 -27.468695
LeftToeBase 8.026697 -0.000000 -0.000000
Spine 40.694739 12.349844 -22.769126
RightShoulder -3.391021 26.610747 -50.683976
RightArm 88.061913 20.332284 43.714494
RightForeArm -25.156604 -0.000000 30.762174
RightHand 12.545834 -0.000000 3.059379
RightHandThumb1 -24.326973 -0.000000 -32.862282
LeftShoulder 0.169139 -24.352355 27.677949
LeftArm 41.346754 -28.234014 -58.179405
LeftForeArm -28.402959 -0.000000 65.336568
LeftHand -9.096331 -0.000000 -15.843276
LeftHandThumb1 -26.253704 0.000000 33.147579
Head -41.741154 0.562494 -28.023241
1043
root -0.709793 31.721164 -7.073143 85.720813 24.955333 -9.456992
RightUpLeg -83.236385 -3.292652 9.258164
RightLeg -5.967790 -0.000000 0.000000
RightFoot -4.883253 -10.735275 17.288699
RightToeBase 7.372817 -0.000000 -0.000000
LeftUpLeg -98.100518 29.575855 24.529540
LeftLeg 4.827818 -0.000000 -0.000000
LeftFoot 3.820988 2.683268 -27.401405
LeftToeBase 7.849281 -0.000000 -0.000000
Spine 40.666344 12.341996 -22.721188
RightShoulder -3.371386 26.574788 -50.670052
RightArm 88.104758 20.335815 43.648471
RightForeArm -25.155482 -0.000000 30.668434
RightHand 12.561645 -0.000000 3.107796
RightHandThumb1 -24.326973 -0.000000 -32.862282
LeftShoulder 0.154655 -24.347355 27.656791
LeftArm 41.339766 -28.157439 -58.077988
LeftForeArm -28.353284 -0.000000 65.235656
LeftHand -9.023673 -0.000000 -15.973333
LeftHandThumb1 -26.253704 0.000000 33.147579
Head -41.746765 0.557691 -27.999551
1044
root -0.707563 31.721969 -7.071362 85.753413 24.968857 -9.442391
RightUpLeg -83.246037 -3.303699 9.139995
RightLeg -5.972511 -0.000000 0.000000
RightFoot -4.926952 -10.818481 17.336088
RightToeBase 7.400000 -0.000000 -0.000000
LeftUpLeg -98.136992 29.570757 24.523177
LeftLeg 4.835882 -0.000000 -0.000000
LeftFoot 3.823490 2.666998 -27.396610
LeftToeBase 7.848115 -0.000000 -0.000000
Spine 40.646356 12.312245 -22.674464
RightShoulder -3.384743 26.584552 -50.682764
RightArm 88.148507 20.296457 43.604563
RightForeArm -25.155549 0.000000 30.588333
RightHand 12.522330 -0.000000 3.142811
RightHandThumb1 -24.326973 -0.000000 -32.862282
LeftShoulder 0.118392 -24.475769 27.662054
LeftArm 41.165848 -28.011967 -57.924782
LeftForeArm -28.374839 -0.000000 65.191492
LeftHand -8.978397 -0.000000 -15.977327
LeftHandThumb1 -26.253704 0.000000 33.147579
Head -41.793365 0.548778 -28.004858
